<svg width="19" height="26" viewBox="0 0 19 26" fill="none" xmlns="http://www.w3.org/2000/svg">
<path d="M1 6.2014V19.6387C1 21.5669 1 22.5308 1.28917 23.1208C1.82513 24.2142 2.99973 24.8427 4.20687 24.6821C4.85816 24.5954 5.66032 24.0607 7.26464 22.9911L7.26849 22.9885C7.90439 22.5646 8.22238 22.3526 8.55502 22.235C9.16596 22.0191 9.83258 22.0191 10.4435 22.235C10.7768 22.3529 11.0961 22.5657 11.7345 22.9913C13.3389 24.0609 14.1419 24.5952 14.7932 24.6819C16.0003 24.8425 17.1749 24.2142 17.7109 23.1208C18 22.5308 18 21.5666 18 19.6387V6.19674C18 4.61303 18 3.81999 17.6915 3.2145C17.4198 2.68137 16.9853 2.24824 16.4521 1.9766C15.8461 1.66779 15.0538 1.66779 13.4669 1.66779H5.53361C3.94679 1.66779 3.1528 1.66779 2.54671 1.9766C2.01359 2.24824 1.58046 2.68137 1.30881 3.2145C1 3.82058 1 4.61458 1 6.2014Z" stroke="#4E56D3" stroke-width="2" stroke-linecap="round" stroke-linejoin="round"/>
</svg>
