<svg width="28" height="28" viewBox="0 0 28 28" fill="none" xmlns="http://www.w3.org/2000/svg">
<path d="M7.63835 25.0525C9.51046 26.1322 11.6826 26.7499 13.999 26.7499C21.0406 26.7499 26.7495 21.0416 26.7495 14C26.7495 6.95837 21.0411 1.25 13.9995 1.25C6.95788 1.25 1.24951 6.95837 1.24951 14C1.24951 16.3164 1.86724 18.4885 2.94695 20.3607L2.95113 20.3679C3.05502 20.548 3.10741 20.6389 3.13114 20.7247C3.15352 20.8057 3.15977 20.8785 3.15404 20.9623C3.14788 21.0523 3.11753 21.1457 3.05531 21.3324L1.96615 24.5999L1.96477 24.6042C1.73497 25.2936 1.62007 25.6383 1.70197 25.8679C1.77338 26.0682 1.9319 26.2263 2.13216 26.2977C2.36133 26.3794 2.70449 26.265 3.39087 26.0362L3.39941 26.0331L6.66691 24.9439C6.85296 24.8819 6.94754 24.8504 7.03743 24.8443C7.12124 24.8385 7.19353 24.8461 7.2745 24.8685C7.36056 24.8923 7.45144 24.9447 7.63249 25.0491L7.63835 25.0525Z" stroke="#D1D4FF" stroke-width="2" stroke-linecap="round" stroke-linejoin="round"/>
</svg>
