<svg width="24" height="24" viewBox="0 0 24 24" fill="none" xmlns="http://www.w3.org/2000/svg">
<path d="M21.67 6.95C21.03 4.78 19.22 2.97 17.05 2.33C15.4 1.85 14.26 1.89 13.47 2.48C12.52 3.19 12.41 4.47 12.41 5.38V7.87C12.41 10.33 13.53 11.58 15.73 11.58H18.6C19.5 11.58 20.79 11.47 21.5 10.52C22.11 9.74 22.16 8.6 21.67 6.95Z" fill="#07131C"/>
<path d="M18.91 13.36C18.65 13.06 18.27 12.89 17.88 12.89H14.3C12.54 12.89 11.11 11.46 11.11 9.7V6.12C11.11 5.73 10.94 5.35 10.64 5.09C10.35 4.83 9.95002 4.71 9.57002 4.76C7.22002 5.06 5.06002 6.35 3.65002 8.29C2.23002 10.24 1.71002 12.62 2.16002 15C2.81002 18.44 5.56002 21.19 9.01002 21.84C9.56002 21.95 10.11 22 10.66 22C12.47 22 14.22 21.44 15.71 20.35C17.65 18.94 18.94 16.78 19.24 14.43C19.29 14.04 19.17 13.65 18.91 13.36Z" fill="#07131C"/>
</svg>
