<svg width="18" height="19" viewBox="0 0 18 19" fill="none" xmlns="http://www.w3.org/2000/svg">
<path d="M1 9.45222V14.8002C1 15.9203 1 16.4807 1.21799 16.9086C1.40973 17.2849 1.71547 17.5906 2.0918 17.7823C2.5192 18.0001 3.07899 18.0001 4.19691 18.0001H13.8031C14.921 18.0001 15.48 18.0001 15.9074 17.7823C16.2837 17.5906 16.5905 17.2849 16.7822 16.9086C17 16.4811 17 15.9216 17 14.8037V9.45222C17 8.91789 16.9995 8.65057 16.9346 8.40193C16.877 8.18159 16.7825 7.97307 16.6546 7.78464C16.5102 7.57201 16.3096 7.39569 15.9074 7.04383L11.1074 2.84383C10.3608 2.19054 9.98751 1.86406 9.56738 1.73982C9.19719 1.63035 8.80261 1.63035 8.43242 1.73982C8.01261 1.86397 7.63985 2.19014 6.89436 2.84244L2.09277 7.04383C1.69064 7.39569 1.49004 7.57201 1.3457 7.78464C1.21779 7.97307 1.12255 8.18159 1.06497 8.40193C1 8.65057 1 8.91788 1 9.45222Z" stroke="#CDFE64" stroke-width="2" stroke-linecap="round" stroke-linejoin="round"/>
</svg>
