<svg width="16" height="16" viewBox="0 0 16 16" fill="none" xmlns="http://www.w3.org/2000/svg">
<path fill-rule="evenodd" clip-rule="evenodd" d="M8 0C3.58172 0 0 3.58172 0 8V16H8C12.4183 16 16 12.4183 16 8C16 3.58172 12.4183 0 8 0ZM4.36403 9.36355C5.11709 9.36355 5.72757 8.75308 5.72757 8.00001C5.72757 7.24695 5.11709 6.63647 4.36403 6.63647C3.61097 6.63647 3.00049 7.24695 3.00049 8.00001C3.00049 8.75308 3.61097 9.36355 4.36403 9.36355ZM9.36345 8.00001C9.36345 8.75308 8.75297 9.36355 7.99991 9.36355C7.24685 9.36355 6.63637 8.75308 6.63637 8.00001C6.63637 7.24695 7.24685 6.63647 7.99991 6.63647C8.75297 6.63647 9.36345 7.24695 9.36345 8.00001ZM11.6365 9.36355C12.3895 9.36355 13 8.75308 13 8.00001C13 7.24695 12.3895 6.63647 11.6365 6.63647C10.8834 6.63647 10.2729 7.24695 10.2729 8.00001C10.2729 8.75308 10.8834 9.36355 11.6365 9.36355Z" fill="#07131C"/>
</svg>
